        <svg
          width="18"
          height="19"
          viewBox="0 0 18 19"
          fill="none"
          xmlns="http://www.w3.org/2000/svg"
        >
          <path
            d="M7.94104 9.58157C8.52675 10.1395 9.47794 10.1395 10.0636 9.58157L17.5607 2.4403C18.1464 1.88239 18.1464 0.976345 17.5607 0.418433C16.975 -0.139478 16.0238 -0.139478 15.4381 0.418433L9 6.55099L2.56189 0.422896C1.97618 -0.135015 1.02499 -0.135015 0.439281 0.422896C-0.146427 0.980807 -0.146427 1.88686 0.439281 2.44477L7.93635 9.58603L7.94104 9.58157Z"
            fill="black"
          />
          <path
            d="M7.94104 18.5397C8.52675 19.1534 9.47794 19.1534 10.0636 18.5397L17.5607 10.6843C18.1464 10.0706 18.1464 9.07398 17.5607 8.46028C16.975 7.84657 16.0238 7.84657 15.4381 8.46028L9 15.2061L2.56189 8.46519C1.97618 7.85148 1.02499 7.85148 0.439281 8.46519C-0.146427 9.07889 -0.146427 10.0755 0.439281 10.6892L7.93635 18.5446L7.94104 18.5397Z"
            fill="black"
          />
        </svg>