<svg width="17" height="17" viewBox="0 0 17 17" fill="none" xmlns="http://www.w3.org/2000/svg">
<path d="M8.5 17C3.80508 17 0 13.1949 0 8.5C0 3.80508 3.80508 0 8.5 0C13.1949 0 17 3.80508 17 8.5C17 13.1949 13.1949 17 8.5 17ZM12.418 4.8377C12.0627 4.57871 11.5646 4.6584 11.3057 5.01367L7.34121 10.4656L5.61133 8.73574C5.29922 8.42363 4.79453 8.42363 4.48574 8.73574C4.17695 9.04785 4.17363 9.55254 4.48574 9.86133L6.87637 12.252C7.04238 12.418 7.26816 12.501 7.50059 12.4844C7.73301 12.4678 7.94551 12.3482 8.08164 12.159L12.5939 5.95C12.8529 5.59473 12.7732 5.09668 12.418 4.8377Z" fill="#F1F1F1"/>
</svg>
